<?xml version="1.0" standalone="no"?><!DOCTYPE svg PUBLIC "-//W3C//DTD SVG 1.1//EN" "http://www.w3.org/Graphics/SVG/1.1/DTD/svg11.dtd"><svg t="1606463789398" class="icon" viewBox="0 0 1024 1024" version="1.1" xmlns="http://www.w3.org/2000/svg" p-id="6602" xmlns:xlink="http://www.w3.org/1999/xlink" width="24" height="24"><defs><style type="text/css"></style></defs><path d="M963.637419 218.455056a72.732227 72.732227 0 0 0-57.423579-63.753738 1354.460102 1354.460102 0 0 1-185.641582-42.760865A689.793478 689.793478 0 0 1 554.760865 15.050274a75.897307 75.897307 0 0 0-88.68681 0A434.907715 434.907715 0 0 1 298.970794 111.359112a623.197628 623.197628 0 0 1-180.474106 44.634075 67.629345 67.629345 0 0 0-56.777644 63.818331c-1.421056 32.296726-1.937804 160.127168-1.937804 301.070082 0 255.144137 301.070081 502.020312 451.572825 502.020311s405.646881-174.402321 446.469943-498.144704a2954.698291 2954.698291 0 0 0 3.165079-305.52703z m-163.938182 197.074623l-314.440926 296.613133a42.760865 42.760865 0 0 1-52.320697 5.102883l-8.267962-7.040686L251.171639 529.666309a43.342207 43.342207 0 1 1 63.753738-58.650855l142.880716 149.921403 283.177696-267.93364a43.342207 43.342207 0 1 1 58.650854 63.818331" p-id="6603" data-spm-anchor-id="a313x.7781069.0.i22" class="selected" fill="#1296db"></path></svg>